<svg width="252" height="48" viewBox="0 0 252 48" fill="none" xmlns="http://www.w3.org/2000/svg">
<path d="M18.6225 1.01004L1.45193 16.5393L6.24961 39.1389L27.8391 46.5248L45.136 31.3111L41.3484 8.77469L18.6225 1.01004Z" fill="#2196EA"/>
<path fill-rule="evenodd" clip-rule="evenodd" d="M44.294 14.4622C44.4692 16.1373 44.2847 17.8306 43.7525 19.4286C45.4514 21.3082 46.5097 23.6786 46.7748 26.1982C47.0398 28.7179 46.4981 31.2566 45.2275 33.4486C44.394 34.9129 43.2572 36.1822 41.8934 37.1715C40.5296 38.1609 38.9701 38.8475 37.3194 39.1854C36.5405 41.5979 35.0153 43.7004 32.9638 45.1897C30.9123 46.679 28.4406 47.4781 25.9055 47.4715C24.2213 47.4821 22.5543 47.1328 21.016 46.447C19.4777 45.7612 18.1037 44.7548 16.9859 43.495C14.5076 44.0267 11.9244 43.7575 9.60906 42.7261C7.2937 41.6947 5.36585 39.9544 4.10361 37.7564C3.25224 36.3031 2.72115 34.6847 2.54587 33.0095C2.37059 31.3344 2.55517 29.6411 3.08727 28.0431C1.3879 26.1627 0.329701 23.7912 0.0652879 21.2706C-0.199126 18.7499 0.343913 16.2105 1.61609 14.0184C2.44964 12.5541 3.58638 11.2848 4.9502 10.2955C6.31403 9.30611 7.87348 8.6195 9.52416 8.28161C10.3037 5.87066 11.8287 3.76954 13.8794 2.28118C15.93 0.792822 18.4004 -0.00587832 20.9343 0.000234485C22.6185 -0.0103711 24.2855 0.338903 25.8238 1.02468C27.3621 1.71046 28.7361 2.71691 29.8539 3.97668C32.3323 3.44475 34.9155 3.71392 37.2309 4.74537C39.5462 5.77681 41.4741 7.51718 42.7361 9.71535C43.5876 11.1686 44.1187 12.787 44.294 14.4622ZM41.7932 15.5748C41.9476 17.0474 41.785 18.5359 41.3165 19.9407C42.8124 21.593 43.7442 23.6768 43.9776 25.8918C44.211 28.1068 43.734 30.3386 42.6152 32.2655C41.8813 33.5528 40.8803 34.6686 39.6795 35.5384C38.4786 36.4081 37.1055 37.0117 35.652 37.3087C34.9661 39.4295 33.6231 41.2778 31.8167 42.5871C30.0103 43.8963 27.834 44.5987 25.6018 44.5929C24.1189 44.6022 22.651 44.2952 21.2965 43.6923C19.942 43.0895 18.7321 42.2047 17.7479 41.0972C15.5657 41.5647 13.2912 41.328 11.2524 40.4213C9.21372 39.5146 7.51621 37.9848 6.40478 36.0525C5.65514 34.7749 5.18749 33.3522 5.03316 31.8796C4.87882 30.407 5.04135 28.9184 5.50987 27.5136C4.01354 25.8606 3.08178 23.7758 2.84896 21.56C2.61613 19.3441 3.09429 17.1117 4.21447 15.1847C4.94843 13.8974 5.94934 12.7816 7.15022 11.9119C8.3511 11.0421 9.72423 10.4385 11.1777 10.1415C11.8641 8.02206 13.2069 6.17498 15.0125 4.86658C16.8182 3.55818 18.9934 2.85605 21.2245 2.86142C22.7075 2.8521 24.1753 3.15914 25.5298 3.762C26.8843 4.36486 28.0942 5.24963 29.0785 6.35708C31.2607 5.88946 33.5352 6.12609 35.574 7.03282C37.6127 7.93955 39.3102 9.46949 40.4215 11.4019C41.1712 12.6794 41.6389 14.1021 41.7932 15.5748Z" fill="#FAFAFA"/>
<path fill-rule="evenodd" clip-rule="evenodd" d="M11.7994 31.9619H29.2736V19.0767C29.2736 17.1354 27.7092 15.5622 25.7787 15.5622H8.30462V28.4475C8.30462 30.3887 9.869 31.9619 11.7994 31.9619ZM31.6024 27.277L38.5921 31.9619V15.5622L31.6034 20.2482L31.6024 27.277Z" fill="#FAFAFA"/>
<path d="M59 34.52V33.976L67.6472 21.016H59.9789V17.24H74.4997V17.784L65.8851 30.744H74.1734V34.52H59Z" fill="#FAFAFA"/>
<path d="M84.717 35C82.944 35 81.3886 34.6107 80.0507 33.832C78.7129 33.0533 77.6687 31.9813 76.9182 30.616C76.1786 29.24 75.8087 27.6613 75.8087 25.88C75.8087 24.0773 76.1894 22.4933 76.9508 21.128C77.7122 19.752 78.7618 18.68 80.0997 17.912C81.4376 17.144 82.9767 16.76 84.717 16.76C86.4899 16.76 88.0453 17.1493 89.3832 17.928C90.7319 18.7067 91.7816 19.784 92.5321 21.16C93.2826 22.5253 93.6578 24.0987 93.6578 25.88C93.6578 27.672 93.2771 29.256 92.5158 30.632C91.7652 31.9973 90.7156 33.0693 89.3669 33.848C88.029 34.616 86.479 35 84.717 35ZM84.717 30.936C86.1418 30.936 87.2024 30.4667 87.8985 29.528C88.6055 28.5787 88.959 27.3627 88.959 25.88C88.959 24.344 88.6 23.1173 87.8822 22.2C87.1752 21.2827 86.1201 20.824 84.717 20.824C83.7489 20.824 82.9549 21.0373 82.3349 21.464C81.7149 21.8907 81.2527 22.4827 80.9481 23.24C80.6544 23.9973 80.5076 24.8773 80.5076 25.88C80.5076 27.4267 80.8611 28.6587 81.5681 29.576C82.286 30.4827 83.3356 30.936 84.717 30.936Z" fill="#FAFAFA"/>
<path d="M105.175 35C103.402 35 101.847 34.6107 100.509 33.832C99.1709 33.0533 98.1267 31.9813 97.3762 30.616C96.6366 29.24 96.2668 27.6613 96.2668 25.88C96.2668 24.0773 96.6475 22.4933 97.4089 21.128C98.1702 19.752 99.2199 18.68 100.558 17.912C101.896 17.144 103.435 16.76 105.175 16.76C106.948 16.76 108.503 17.1493 109.841 17.928C111.19 18.7067 112.24 19.784 112.99 21.16C113.741 22.5253 114.116 24.0987 114.116 25.88C114.116 27.672 113.735 29.256 112.974 30.632C112.223 31.9973 111.174 33.0693 109.825 33.848C108.487 34.616 106.937 35 105.175 35ZM105.175 30.936C106.6 30.936 107.66 30.4667 108.357 29.528C109.064 28.5787 109.417 27.3627 109.417 25.88C109.417 24.344 109.058 23.1173 108.34 22.2C107.633 21.2827 106.578 20.824 105.175 20.824C104.207 20.824 103.413 21.0373 102.793 21.464C102.173 21.8907 101.711 22.4827 101.406 23.24C101.112 23.9973 100.966 24.8773 100.966 25.88C100.966 27.4267 101.319 28.6587 102.026 29.576C102.744 30.4827 103.794 30.936 105.175 30.936Z" fill="#FAFAFA"/>
<path d="M138.914 34.52V24.312C138.914 23.1707 138.636 22.2853 138.082 21.656C137.538 21.016 136.782 20.696 135.814 20.696C135.194 20.696 134.655 20.84 134.199 21.128C133.742 21.4053 133.383 21.8 133.122 22.312C132.872 22.8133 132.747 23.3947 132.747 24.056L130.887 22.84C130.887 21.656 131.169 20.6107 131.735 19.704C132.312 18.7973 133.078 18.0933 134.036 17.592C135.004 17.08 136.075 16.824 137.25 16.824C139.262 16.824 140.779 17.4107 141.802 18.584C142.835 19.7467 143.352 21.272 143.352 23.16V34.52H138.914ZM117.671 34.52V17.24H121.587V22.968H122.142V34.52H117.671ZM128.309 34.52V24.312C128.309 23.1707 128.031 22.2853 127.477 21.656C126.933 21.016 126.177 20.696 125.209 20.696C124.284 20.696 123.539 21.0107 122.974 21.64C122.419 22.2587 122.142 23.064 122.142 24.056L120.282 22.776C120.282 21.6453 120.57 20.632 121.146 19.736C121.723 18.84 122.495 18.1307 123.463 17.608C124.442 17.0853 125.535 16.824 126.742 16.824C128.124 16.824 129.255 17.112 130.136 17.688C131.028 18.264 131.686 19.032 132.11 19.992C132.534 20.952 132.747 22.008 132.747 23.16V34.52H128.309Z" fill="#FAFAFA"/>
<path d="M168.804 34.52V24.312C168.804 23.1707 168.527 22.2853 167.972 21.656C167.428 21.016 166.672 20.696 165.704 20.696C165.084 20.696 164.546 20.84 164.089 21.128C163.632 21.4053 163.273 21.8 163.012 22.312C162.762 22.8133 162.637 23.3947 162.637 24.056L160.777 22.84C160.777 21.656 161.06 20.6107 161.625 19.704C162.202 18.7973 162.969 18.0933 163.926 17.592C164.894 17.08 165.965 16.824 167.14 16.824C169.152 16.824 170.67 17.4107 171.692 18.584C172.725 19.7467 173.242 21.272 173.242 23.16V34.52H168.804ZM147.562 34.52V17.24H151.477V22.968H152.032V34.52H147.562ZM158.199 34.52V24.312C158.199 23.1707 157.922 22.2853 157.367 21.656C156.823 21.016 156.067 20.696 155.099 20.696C154.175 20.696 153.43 21.0107 152.864 21.64C152.309 22.2587 152.032 23.064 152.032 24.056L150.172 22.776C150.172 21.6453 150.46 20.632 151.037 19.736C151.613 18.84 152.385 18.1307 153.354 17.608C154.332 17.0853 155.426 16.824 156.633 16.824C158.014 16.824 159.145 17.112 160.027 17.688C160.918 18.264 161.576 19.032 162.001 19.992C162.425 20.952 162.637 22.008 162.637 23.16V34.52H158.199Z" fill="#FAFAFA"/>
<path d="M182.379 35C181.117 35 180.046 34.7653 179.165 34.296C178.295 33.816 177.631 33.1813 177.175 32.392C176.729 31.592 176.506 30.712 176.506 29.752C176.506 28.952 176.631 28.2213 176.881 27.56C177.131 26.8987 177.533 26.3173 178.088 25.816C178.654 25.304 179.41 24.8773 180.356 24.536C181.009 24.3013 181.786 24.0933 182.689 23.912C183.592 23.7307 184.614 23.56 185.756 23.4C186.899 23.2293 188.155 23.0427 189.525 22.84L187.926 23.704C187.926 22.68 187.676 21.928 187.176 21.448C186.676 20.968 185.838 20.728 184.663 20.728C184.011 20.728 183.331 20.8827 182.624 21.192C181.917 21.5013 181.422 22.0507 181.139 22.84L177.126 21.592C177.572 20.1627 178.409 19 179.638 18.104C180.867 17.208 182.542 16.76 184.663 16.76C186.219 16.76 187.6 16.9947 188.807 17.464C190.015 17.9333 190.928 18.744 191.548 19.896C191.897 20.536 192.103 21.176 192.168 21.816C192.234 22.456 192.266 23.1707 192.266 23.96V34.52H188.383V30.968L188.938 31.704C188.079 32.8667 187.149 33.7093 186.148 34.232C185.158 34.744 183.902 35 182.379 35ZM183.325 31.576C184.141 31.576 184.827 31.4373 185.381 31.16C185.947 30.872 186.393 30.5467 186.719 30.184C187.056 29.8213 187.285 29.5173 187.404 29.272C187.633 28.8027 187.763 28.2587 187.796 27.64C187.839 27.0107 187.861 26.488 187.861 26.072L189.166 26.392C187.85 26.6053 186.784 26.7867 185.969 26.936C185.153 27.0747 184.495 27.2027 183.994 27.32C183.494 27.4373 183.054 27.5653 182.673 27.704C182.238 27.8747 181.884 28.0613 181.612 28.264C181.351 28.456 181.156 28.6693 181.025 28.904C180.905 29.1387 180.846 29.4 180.846 29.688C180.846 30.0827 180.943 30.424 181.139 30.712C181.346 30.9893 181.634 31.2027 182.004 31.352C182.374 31.5013 182.814 31.576 183.325 31.576Z" fill="#FAFAFA"/>
<path d="M196.509 34.52V17.24H200.424V21.464L200 20.92C200.229 20.3227 200.533 19.7787 200.914 19.288C201.294 18.7973 201.762 18.392 202.317 18.072C202.741 17.816 203.203 17.6187 203.704 17.48C204.204 17.3307 204.721 17.24 205.254 17.208C205.787 17.1653 206.32 17.176 206.853 17.24V21.304C206.363 21.1547 205.792 21.1067 205.139 21.16C204.498 21.2027 203.916 21.3467 203.394 21.592C202.872 21.8267 202.431 22.1413 202.072 22.536C201.713 22.92 201.441 23.3787 201.256 23.912C201.072 24.4347 200.979 25.0267 200.979 25.688V34.52H196.509Z" fill="#FAFAFA"/>
<path d="M210.282 14.84V11H214.72V14.84H210.282ZM210.282 34.52V17.24H214.72V34.52H210.282Z" fill="#FAFAFA"/>
<path d="M217.98 34.52V33.976L226.627 21.016H218.959V17.24H233.48V17.784L224.865 30.744H233.153V34.52H217.98Z" fill="#FAFAFA"/>
<path d="M243.958 35C242.152 35 240.559 34.6213 239.178 33.864C237.807 33.096 236.73 32.0453 235.947 30.712C235.175 29.368 234.789 27.832 234.789 26.104C234.789 24.216 235.169 22.5733 235.931 21.176C236.692 19.7787 237.742 18.696 239.08 17.928C240.418 17.1493 241.957 16.76 243.697 16.76C245.546 16.76 247.118 17.1867 248.412 18.04C249.706 18.8933 250.664 20.0933 251.284 21.64C251.904 23.1867 252.121 25.0053 251.936 27.096H247.547V25.496C247.547 23.736 247.259 22.472 246.683 21.704C246.117 20.9253 245.187 20.536 243.893 20.536C242.381 20.536 241.266 20.9893 240.548 21.896C239.841 22.792 239.488 24.12 239.488 25.88C239.488 27.4907 239.841 28.7387 240.548 29.624C241.266 30.4987 242.316 30.936 243.697 30.936C244.567 30.936 245.312 30.7493 245.932 30.376C246.552 30.0027 247.025 29.464 247.352 28.76L251.789 30.008C251.126 31.5867 250.076 32.8133 248.641 33.688C247.216 34.5627 245.655 35 243.958 35ZM238.117 27.096V23.864H249.799V27.096H238.117Z" fill="#FAFAFA"/>
</svg>
