<svg width="36" height="36" viewBox="0 0 36 36" fill="none" xmlns="http://www.w3.org/2000/svg">
<path d="M18 21C19.6569 21 21 19.6569 21 18C21 16.3431 19.6569 15 18 15C16.3431 15 15 16.3431 15 18C15 19.6569 16.3431 21 18 21Z" stroke="#FAFAFA" stroke-width="2" stroke-linecap="round" stroke-linejoin="round"/>
<path d="M25.4 21C25.2669 21.3016 25.2272 21.6362 25.286 21.9606C25.3448 22.285 25.4995 22.5843 25.73 22.82L25.79 22.88C25.976 23.0657 26.1235 23.2863 26.2241 23.5291C26.3248 23.7719 26.3766 24.0322 26.3766 24.295C26.3766 24.5578 26.3248 24.8181 26.2241 25.0609C26.1235 25.3037 25.976 25.5243 25.79 25.71C25.6043 25.896 25.3837 26.0435 25.1409 26.1441C24.8981 26.2448 24.6378 26.2966 24.375 26.2966C24.1122 26.2966 23.8519 26.2448 23.6091 26.1441C23.3663 26.0435 23.1457 25.896 22.96 25.71L22.9 25.65C22.6643 25.4195 22.365 25.2648 22.0406 25.206C21.7162 25.1472 21.3816 25.1869 21.08 25.32C20.7842 25.4468 20.532 25.6572 20.3543 25.9255C20.1766 26.1938 20.0813 26.5082 20.08 26.83V27C20.08 27.5304 19.8693 28.0391 19.4942 28.4142C19.1191 28.7893 18.6104 29 18.08 29C17.5496 29 17.0409 28.7893 16.6658 28.4142C16.2907 28.0391 16.08 27.5304 16.08 27V26.91C16.0723 26.579 15.9651 26.258 15.7725 25.9887C15.5799 25.7194 15.3107 25.5143 15 25.4C14.6984 25.2669 14.3638 25.2272 14.0394 25.286C13.715 25.3448 13.4157 25.4995 13.18 25.73L13.12 25.79C12.9343 25.976 12.7137 26.1235 12.4709 26.2241C12.2281 26.3248 11.9678 26.3766 11.705 26.3766C11.4422 26.3766 11.1819 26.3248 10.9391 26.2241C10.6963 26.1235 10.4757 25.976 10.29 25.79C10.104 25.6043 9.95653 25.3837 9.85588 25.1409C9.75523 24.8981 9.70343 24.6378 9.70343 24.375C9.70343 24.1122 9.75523 23.8519 9.85588 23.6091C9.95653 23.3663 10.104 23.1457 10.29 22.96L10.35 22.9C10.5805 22.6643 10.7352 22.365 10.794 22.0406C10.8528 21.7162 10.8131 21.3816 10.68 21.08C10.5532 20.7842 10.3428 20.532 10.0745 20.3543C9.80618 20.1766 9.49179 20.0813 9.17 20.08H9C8.46957 20.08 7.96086 19.8693 7.58579 19.4942C7.21071 19.1191 7 18.6104 7 18.08C7 17.5496 7.21071 17.0409 7.58579 16.6658C7.96086 16.2907 8.46957 16.08 9 16.08H9.09C9.42099 16.0723 9.742 15.9651 10.0113 15.7725C10.2806 15.5799 10.4857 15.3107 10.6 15C10.7331 14.6984 10.7728 14.3638 10.714 14.0394C10.6552 13.715 10.5005 13.4157 10.27 13.18L10.21 13.12C10.024 12.9343 9.87653 12.7137 9.77588 12.4709C9.67523 12.2281 9.62343 11.9678 9.62343 11.705C9.62343 11.4422 9.67523 11.1819 9.77588 10.9391C9.87653 10.6963 10.024 10.4757 10.21 10.29C10.3957 10.104 10.6163 9.95653 10.8591 9.85588C11.1019 9.75523 11.3622 9.70343 11.625 9.70343C11.8878 9.70343 12.1481 9.75523 12.3909 9.85588C12.6337 9.95653 12.8543 10.104 13.04 10.29L13.1 10.35C13.3357 10.5805 13.635 10.7352 13.9594 10.794C14.2838 10.8528 14.6184 10.8131 14.92 10.68H15C15.2958 10.5532 15.548 10.3428 15.7257 10.0745C15.9034 9.80618 15.9987 9.49179 16 9.17V9C16 8.46957 16.2107 7.96086 16.5858 7.58579C16.9609 7.21071 17.4696 7 18 7C18.5304 7 19.0391 7.21071 19.4142 7.58579C19.7893 7.96086 20 8.46957 20 9V9.09C20.0013 9.41179 20.0966 9.72618 20.2743 9.99447C20.452 10.2628 20.7042 10.4732 21 10.6C21.3016 10.7331 21.6362 10.7728 21.9606 10.714C22.285 10.6552 22.5843 10.5005 22.82 10.27L22.88 10.21C23.0657 10.024 23.2863 9.87653 23.5291 9.77588C23.7719 9.67523 24.0322 9.62343 24.295 9.62343C24.5578 9.62343 24.8181 9.67523 25.0609 9.77588C25.3037 9.87653 25.5243 10.024 25.71 10.21C25.896 10.3957 26.0435 10.6163 26.1441 10.8591C26.2448 11.1019 26.2966 11.3622 26.2966 11.625C26.2966 11.8878 26.2448 12.1481 26.1441 12.3909C26.0435 12.6337 25.896 12.8543 25.71 13.04L25.65 13.1C25.4195 13.3357 25.2648 13.635 25.206 13.9594C25.1472 14.2838 25.1869 14.6184 25.32 14.92V15C25.4468 15.2958 25.6572 15.548 25.9255 15.7257C26.1938 15.9034 26.5082 15.9987 26.83 16H27C27.5304 16 28.0391 16.2107 28.4142 16.5858C28.7893 16.9609 29 17.4696 29 18C29 18.5304 28.7893 19.0391 28.4142 19.4142C28.0391 19.7893 27.5304 20 27 20H26.91C26.5882 20.0013 26.2738 20.0966 26.0055 20.2743C25.7372 20.452 25.5268 20.7042 25.4 21Z" stroke="#FAFAFA" stroke-width="2" stroke-linecap="round" stroke-linejoin="round"/>
</svg>
